<?xml version="1.0" encoding="utf-8"?>
<!-- Generator: Adobe Illustrator 26.2.1, SVG Export Plug-In . SVG Version: 6.00 Build 0)  -->
<svg version="1.1" id="Camada_1" xmlns="http://www.w3.org/2000/svg" xmlns:xlink="http://www.w3.org/1999/xlink" x="0px" y="0px"
	 viewBox="0 0 220 68.7" style="enable-background:new 0 0 220 68.7;" xml:space="preserve">
<style type="text/css">
	.st0{fill:#FFFFFF;}
	.st1{fill:none;stroke:#FFFFFF;stroke-width:0.71;stroke-miterlimit:3.864;}
	.st2{fill-rule:evenodd;clip-rule:evenodd;fill:#FFFFFF;}
	.st3{fill:none;stroke:#FFFFFF;stroke-width:0.447;stroke-miterlimit:3.864;}
</style>
<g>
	<path class="st0" d="M133.4,38l-2.3,0.9c-0.3-0.1-1.2-0.7-2.8-1.6c-1.6-0.9-4.1-2.3-7.5-4.2l0-0.1c0.5-0.1,1.1-0.2,1.8-0.4
		c0.8-0.2,1.4-0.4,1.9-0.7c0.4-0.2,0.8-0.5,1.2-0.8c0.3-0.3,0.5-0.7,0.5-1.2c0-0.5-0.2-0.9-0.7-1.2c-0.5-0.3-1.2-0.6-2-0.7
		c-0.7-0.1-1.4-0.2-2.2-0.2c-0.8,0-1.5,0-2.1,0c-0.4,0-0.8,0-1,0h-0.5c0,1.1,0,2.2-0.1,3v1.9c0,0.8,0,1.9,0,3.4c0,1.4,0,2.3,0.1,2.7
		h-3c0-0.4,0-1.1,0.1-2.1c0-1,0-2.3,0-3.9v-1.7c0-0.8,0-2.3-0.1-4.4c0.1,0,0.7,0,1.8,0c1.1,0,2.1,0,3,0c1,0,2.1,0,3.1,0.1
		c1,0.1,2,0.2,2.9,0.4c1.2,0.3,2.1,0.6,2.8,1.1c0.7,0.5,1,1.1,1,1.7c0,0.9-0.5,1.6-1.6,2.1c-1,0.6-2,1-3,1.3v0c1.7,1,3.5,2,5.4,3
		C132.2,37.4,133.2,37.9,133.4,38"/>
	<path class="st0" d="M133.4,38l-2.3,0.9c-0.3-0.1-1.2-0.7-2.8-1.6c-1.6-0.9-4.1-2.3-7.5-4.2l0-0.1c0.5-0.1,1.1-0.2,1.8-0.4
		c0.8-0.2,1.4-0.4,1.9-0.7c0.4-0.2,0.8-0.5,1.2-0.8c0.3-0.3,0.5-0.7,0.5-1.2c0-0.5-0.2-0.9-0.7-1.2c-0.5-0.3-1.2-0.6-2-0.7
		c-0.7-0.1-1.4-0.2-2.2-0.2c-0.8,0-1.5,0-2.1,0c-0.4,0-0.8,0-1,0h-0.5c0,1.1,0,2.2-0.1,3v1.9c0,0.8,0,1.9,0,3.4c0,1.4,0,2.3,0.1,2.7
		h-3c0-0.4,0-1.1,0.1-2.1c0-1,0-2.3,0-3.9v-1.7c0-0.8,0-2.3-0.1-4.4c0.1,0,0.7,0,1.8,0c1.1,0,2.1,0,3,0c1,0,2.1,0,3.1,0.1
		c1,0.1,2,0.2,2.9,0.4c1.2,0.3,2.1,0.6,2.8,1.1c0.7,0.5,1,1.1,1,1.7c0,0.9-0.5,1.6-1.6,2.1c-1,0.6-2,1-3,1.3v0c1.7,1,3.5,2,5.4,3
		C132.2,37.4,133.2,37.9,133.4,38"/>
	<path class="st1" d="M133.4,38l-2.3,0.9c-0.3-0.1-1.2-0.7-2.8-1.6c-1.6-0.9-4.1-2.3-7.5-4.2l0-0.1c0.5-0.1,1.1-0.2,1.8-0.4
		c0.8-0.2,1.4-0.4,1.9-0.7c0.4-0.2,0.8-0.5,1.2-0.8c0.3-0.3,0.5-0.7,0.5-1.2c0-0.5-0.2-0.9-0.7-1.2c-0.5-0.3-1.2-0.6-2-0.7
		c-0.7-0.1-1.4-0.2-2.2-0.2c-0.8,0-1.5,0-2.1,0c-0.4,0-0.8,0-1,0h-0.5c0,1.1,0,2.2-0.1,3v1.9c0,0.8,0,1.9,0,3.4c0,1.4,0,2.3,0.1,2.7
		h-3c0-0.4,0-1.1,0.1-2.1c0-1,0-2.3,0-3.9v-1.7c0-0.8,0-2.3-0.1-4.4c0.1,0,0.7,0,1.8,0c1.1,0,2.1,0,3,0c1,0,2.1,0,3.1,0.1
		c1,0.1,2,0.2,2.9,0.4c1.2,0.3,2.1,0.6,2.8,1.1c0.7,0.5,1,1.1,1,1.7c0,0.9-0.5,1.6-1.6,2.1c-1,0.6-2,1-3,1.3v0c1.7,1,3.5,2,5.4,3
		C132.2,37.4,133.2,37.9,133.4,38z"/>
	<path class="st0" d="M155.9,38.7c-0.1,0-0.9,0-2.4,0c-1.5,0-3.3,0-5.5,0c-1.5,0-2.9,0-4.2,0c-1.3,0-2.3,0-3.2,0
		c0-0.3,0-1.1,0.1-2.3c0-1.2,0-2.4,0-3.6c0-0.7,0-1.6,0-2.7c0-1.1,0-2.3-0.1-3.5c0.9,0,1.9,0,3.2,0c1.3,0,2.6,0,4,0
		c2.3,0,4.2,0,5.6,0c1.4,0,2.2,0,2.3,0v1.3c-0.1,0-0.9,0-2.3,0c-1.4,0-3.1,0-5.2,0c-0.9,0-1.8,0-2.7,0h-2.1c0,0.7,0,1.4,0,2
		c0,0.7,0,1.3,0,1.9c0.5,0,1.2,0,1.9,0h2c2.1,0,4,0,5.7,0c1.7,0,2.6,0,2.7,0v1.2c-0.1,0-1.1,0-3,0c-1.9,0-3.6,0-5.2,0
		c-0.6,0-1.3,0-2.1,0h-2c0,1.1,0,2,0,2.7c0,0.7,0,1.2,0,1.7c0.7,0,1.6,0,2.6,0h3.3c1.8,0,3.3,0,4.5,0c1.2,0,1.9,0,2.1,0V38.7z"/>
	<path class="st0" d="M155.9,38.7c-0.1,0-0.9,0-2.4,0c-1.5,0-3.3,0-5.5,0c-1.5,0-2.9,0-4.2,0c-1.3,0-2.3,0-3.2,0
		c0-0.3,0-1.1,0.1-2.3c0-1.2,0-2.4,0-3.6c0-0.7,0-1.6,0-2.7c0-1.1,0-2.3-0.1-3.5c0.9,0,1.9,0,3.2,0c1.3,0,2.6,0,4,0
		c2.3,0,4.2,0,5.6,0c1.4,0,2.2,0,2.3,0v1.3c-0.1,0-0.9,0-2.3,0c-1.4,0-3.1,0-5.2,0c-0.9,0-1.8,0-2.7,0h-2.1c0,0.7,0,1.4,0,2
		c0,0.7,0,1.3,0,1.9c0.5,0,1.2,0,1.9,0h2c2.1,0,4,0,5.7,0c1.7,0,2.6,0,2.7,0v1.2c-0.1,0-1.1,0-3,0c-1.9,0-3.6,0-5.2,0
		c-0.6,0-1.3,0-2.1,0h-2c0,1.1,0,2,0,2.7c0,0.7,0,1.2,0,1.7c0.7,0,1.6,0,2.6,0h3.3c1.8,0,3.3,0,4.5,0c1.2,0,1.9,0,2.1,0V38.7z"/>
	<path class="st1" d="M155.9,38.7c-0.1,0-0.9,0-2.4,0c-1.5,0-3.3,0-5.5,0c-1.5,0-2.9,0-4.2,0c-1.3,0-2.3,0-3.2,0
		c0-0.3,0-1.1,0.1-2.3c0-1.2,0-2.4,0-3.6c0-0.7,0-1.6,0-2.7c0-1.1,0-2.3-0.1-3.5c0.9,0,1.9,0,3.2,0c1.3,0,2.6,0,4,0
		c2.3,0,4.2,0,5.6,0c1.4,0,2.2,0,2.3,0v1.3c-0.1,0-0.9,0-2.3,0c-1.4,0-3.1,0-5.2,0c-0.9,0-1.8,0-2.7,0h-2.1c0,0.7,0,1.4,0,2
		c0,0.7,0,1.3,0,1.9c0.5,0,1.2,0,1.9,0h2c2.1,0,4,0,5.7,0c1.7,0,2.6,0,2.7,0v1.2c-0.1,0-1.1,0-3,0c-1.9,0-3.6,0-5.2,0
		c-0.6,0-1.3,0-2.1,0h-2c0,1.1,0,2,0,2.7c0,0.7,0,1.2,0,1.7c0.7,0,1.6,0,2.6,0h3.3c1.8,0,3.3,0,4.5,0c1.2,0,1.9,0,2.1,0V38.7z"/>
	<path class="st2" d="M185.5,32.8c0,1.1-0.5,2-1.6,2.8c-1,0.8-2.4,1.4-4.1,1.9c-1.4,0.4-3.1,0.8-4.8,1c-1.8,0.2-3.8,0.3-6,0.3
		c-0.8,0-1.7,0-2.5,0c-0.8,0-1.3,0-1.3,0c0,0,0-0.7,0-2.1c0-1.4,0.1-2.7,0.1-3.9c0-0.6,0-1.5,0-2.5c0-1,0-2.2-0.1-3.7
		c0.1,0,0.7,0,1.6,0c1,0,1.5,0,1.6,0c2.5,0,4.7,0.1,6.6,0.3c1.9,0.2,3.7,0.6,5.2,1.1c1.8,0.6,3.1,1.2,3.9,2
		C185.1,30.8,185.5,31.7,185.5,32.8 M182.4,32.8c0-0.8-0.3-1.5-1-2.1c-0.7-0.6-1.7-1.2-3.2-1.6c-1.4-0.4-2.9-0.7-4.5-0.9
		c-1.7-0.2-3.2-0.3-4.5-0.3h-0.6h-0.4c0,1,0,1.7-0.1,2.4v1.5v1.9c0,1,0,2.3,0,4h0.5h0.5c1.6,0,3.1-0.1,4.7-0.3
		c1.6-0.2,2.9-0.4,4-0.8c1.4-0.4,2.5-0.9,3.3-1.6C182,34.4,182.4,33.6,182.4,32.8"/>
	<path class="st0" d="M185.5,32.8c0,1.1-0.5,2-1.6,2.8c-1,0.8-2.4,1.4-4.1,1.9c-1.4,0.4-3.1,0.8-4.8,1c-1.8,0.2-3.8,0.3-6,0.3
		c-0.8,0-1.7,0-2.5,0c-0.8,0-1.3,0-1.3,0c0,0,0-0.7,0-2.1c0-1.4,0.1-2.7,0.1-3.9c0-0.6,0-1.5,0-2.5c0-1,0-2.2-0.1-3.7
		c0.1,0,0.7,0,1.6,0c1,0,1.5,0,1.6,0c2.5,0,4.7,0.1,6.6,0.3c1.9,0.2,3.7,0.6,5.2,1.1c1.8,0.6,3.1,1.2,3.9,2
		C185.1,30.8,185.5,31.7,185.5,32.8 M182.4,32.8c0-0.8-0.3-1.5-1-2.1c-0.7-0.6-1.7-1.2-3.2-1.6c-1.4-0.4-2.9-0.7-4.5-0.9
		c-1.7-0.2-3.2-0.3-4.5-0.3h-0.6h-0.4c0,1,0,1.7-0.1,2.4v1.5v1.9c0,1,0,2.3,0,4h0.5h0.5c1.6,0,3.1-0.1,4.7-0.3
		c1.6-0.2,2.9-0.4,4-0.8c1.4-0.4,2.5-0.9,3.3-1.6C182,34.4,182.4,33.6,182.4,32.8"/>
	<path class="st1" d="M185.5,32.8c0,1.1-0.5,2-1.6,2.8c-1,0.8-2.4,1.4-4.1,1.9c-1.4,0.4-3.1,0.8-4.8,1c-1.8,0.2-3.8,0.3-6,0.3
		c-0.8,0-1.7,0-2.5,0c-0.8,0-1.3,0-1.3,0c0,0,0-0.7,0-2.1c0-1.4,0.1-2.7,0.1-3.9c0-0.6,0-1.5,0-2.5c0-1,0-2.2-0.1-3.7
		c0.1,0,0.7,0,1.6,0c1,0,1.5,0,1.6,0c2.5,0,4.7,0.1,6.6,0.3c1.9,0.2,3.7,0.6,5.2,1.1c1.8,0.6,3.1,1.2,3.9,2
		C185.1,30.8,185.5,31.7,185.5,32.8z M182.4,32.8c0-0.8-0.3-1.5-1-2.1c-0.7-0.6-1.7-1.2-3.2-1.6c-1.4-0.4-2.9-0.7-4.5-0.9
		c-1.7-0.2-3.2-0.3-4.5-0.3h-0.6h-0.4c0,1,0,1.7-0.1,2.4v1.5v1.9c0,1,0,2.3,0,4h0.5h0.5c1.6,0,3.1-0.1,4.7-0.3
		c1.6-0.2,2.9-0.4,4-0.8c1.4-0.4,2.5-0.9,3.3-1.6C182,34.4,182.4,33.6,182.4,32.8z"/>
	<path class="st2" d="M54.5,32.6c0,1-0.3,1.9-1,2.7c-0.7,0.8-1.5,1.5-2.6,2c-1.2,0.6-2.5,1-3.8,1.3c-1.3,0.3-2.8,0.4-4.3,0.4
		c-1.5,0-2.9-0.1-4.2-0.4c-1.3-0.3-2.5-0.6-3.6-1.1c-1.2-0.5-2.1-1.2-2.8-2.1c-0.7-0.8-1.1-1.8-1.1-2.8c0-0.9,0.3-1.8,0.9-2.5
		c0.6-0.8,1.4-1.5,2.5-2.1c1-0.6,2.3-1,3.7-1.3c1.4-0.3,3-0.5,4.6-0.5c1.6,0,3.1,0.1,4.5,0.4c1.4,0.3,2.6,0.7,3.6,1.2
		c1.2,0.6,2.1,1.3,2.7,2.1C54.2,30.8,54.5,31.6,54.5,32.6 M51.4,32.7c0-0.8-0.3-1.6-0.8-2.3c-0.5-0.8-1.3-1.4-2.4-1.9
		c-0.7-0.3-1.5-0.6-2.4-0.8c-0.9-0.2-1.9-0.3-3-0.3c-1.1,0-2.1,0.1-3,0.3c-0.9,0.2-1.8,0.5-2.5,0.9c-1,0.5-1.7,1.1-2.3,1.8
		c-0.5,0.7-0.8,1.5-0.8,2.2c0,0.9,0.3,1.6,0.8,2.3c0.6,0.7,1.3,1.3,2.3,1.7c0.7,0.3,1.5,0.6,2.4,0.8c0.9,0.2,1.9,0.3,3,0.3
		s2.1-0.1,3-0.3c0.9-0.2,1.8-0.5,2.5-0.9c0.9-0.4,1.6-1,2.2-1.7C51.1,34.3,51.4,33.5,51.4,32.7"/>
	<path class="st0" d="M54.5,32.6c0,1-0.3,1.9-1,2.7c-0.7,0.8-1.5,1.5-2.6,2c-1.2,0.6-2.5,1-3.8,1.3c-1.3,0.3-2.8,0.4-4.3,0.4
		c-1.5,0-2.9-0.1-4.2-0.4c-1.3-0.3-2.5-0.6-3.6-1.1c-1.2-0.5-2.1-1.2-2.8-2.1c-0.7-0.8-1.1-1.8-1.1-2.8c0-0.9,0.3-1.8,0.9-2.5
		c0.6-0.8,1.4-1.5,2.5-2.1c1-0.6,2.3-1,3.7-1.3c1.4-0.3,3-0.5,4.6-0.5c1.6,0,3.1,0.1,4.5,0.4c1.4,0.3,2.6,0.7,3.6,1.2
		c1.2,0.6,2.1,1.3,2.7,2.1C54.2,30.8,54.5,31.6,54.5,32.6 M51.4,32.7c0-0.8-0.3-1.6-0.8-2.3c-0.5-0.8-1.3-1.4-2.4-1.9
		c-0.7-0.3-1.5-0.6-2.4-0.8c-0.9-0.2-1.9-0.3-3-0.3c-1.1,0-2.1,0.1-3,0.3c-0.9,0.2-1.8,0.5-2.5,0.9c-1,0.5-1.7,1.1-2.3,1.8
		c-0.5,0.7-0.8,1.5-0.8,2.2c0,0.9,0.3,1.6,0.8,2.3c0.6,0.7,1.3,1.3,2.3,1.7c0.7,0.3,1.5,0.6,2.4,0.8c0.9,0.2,1.9,0.3,3,0.3
		s2.1-0.1,3-0.3c0.9-0.2,1.8-0.5,2.5-0.9c0.9-0.4,1.6-1,2.2-1.7C51.1,34.3,51.4,33.5,51.4,32.7"/>
	<path class="st1" d="M54.5,32.6c0,1-0.3,1.9-1,2.7c-0.7,0.8-1.5,1.5-2.6,2c-1.2,0.6-2.5,1-3.8,1.3c-1.3,0.3-2.8,0.4-4.3,0.4
		c-1.5,0-2.9-0.1-4.2-0.4c-1.3-0.3-2.5-0.6-3.6-1.1c-1.2-0.5-2.1-1.2-2.8-2.1c-0.7-0.8-1.1-1.8-1.1-2.8c0-0.9,0.3-1.8,0.9-2.5
		c0.6-0.8,1.4-1.5,2.5-2.1c1-0.6,2.3-1,3.7-1.3c1.4-0.3,3-0.5,4.6-0.5c1.6,0,3.1,0.1,4.5,0.4c1.4,0.3,2.6,0.7,3.6,1.2
		c1.2,0.6,2.1,1.3,2.7,2.1C54.2,30.8,54.5,31.6,54.5,32.6z M51.4,32.7c0-0.8-0.3-1.6-0.8-2.3c-0.5-0.8-1.3-1.4-2.4-1.9
		c-0.7-0.3-1.5-0.6-2.4-0.8c-0.9-0.2-1.9-0.3-3-0.3c-1.1,0-2.1,0.1-3,0.3c-0.9,0.2-1.8,0.5-2.5,0.9c-1,0.5-1.7,1.1-2.3,1.8
		c-0.5,0.7-0.8,1.5-0.8,2.2c0,0.9,0.3,1.6,0.8,2.3c0.6,0.7,1.3,1.3,2.3,1.7c0.7,0.3,1.5,0.6,2.4,0.8c0.9,0.2,1.9,0.3,3,0.3
		s2.1-0.1,3-0.3c0.9-0.2,1.8-0.5,2.5-0.9c0.9-0.4,1.6-1,2.2-1.7C51.1,34.3,51.4,33.5,51.4,32.7z"/>
	<path class="st0" d="M82.4,26.9C82.3,27,81,28.4,78.5,31c-2.5,2.7-4.9,5.3-7.1,7.7H69c-2.5-2.8-4.9-5.4-7.2-7.9
		c-2.3-2.5-3.5-3.8-3.6-3.9l2.8-0.7c0.1,0.1,1.2,1.4,3.3,3.8c2.1,2.4,4.1,4.6,6.1,6.7h0c2-2.2,4-4.4,6.1-6.8
		c2.1-2.4,3.2-3.6,3.3-3.7L82.4,26.9z"/>
	<path class="st0" d="M82.4,26.9C82.3,27,81,28.4,78.5,31c-2.5,2.7-4.9,5.3-7.1,7.7H69c-2.5-2.8-4.9-5.4-7.2-7.9
		c-2.3-2.5-3.5-3.8-3.6-3.9l2.8-0.7c0.1,0.1,1.2,1.4,3.3,3.8c2.1,2.4,4.1,4.6,6.1,6.7h0c2-2.2,4-4.4,6.1-6.8
		c2.1-2.4,3.2-3.6,3.3-3.7L82.4,26.9z"/>
	<path class="st1" d="M82.4,26.9C82.3,27,81,28.4,78.5,31c-2.5,2.7-4.9,5.3-7.1,7.7H69c-2.5-2.8-4.9-5.4-7.2-7.9
		c-2.3-2.5-3.5-3.8-3.6-3.9l2.8-0.7c0.1,0.1,1.2,1.4,3.3,3.8c2.1,2.4,4.1,4.6,6.1,6.7h0c2-2.2,4-4.4,6.1-6.8
		c2.1-2.4,3.2-3.6,3.3-3.7L82.4,26.9z"/>
	<path class="st0" d="M23.3,26.5c0,0.9,0,2-0.1,3.2c0,1.2,0,2.1,0,2.6c0,1.7,0,3.1,0,4.1c0,1,0,1.5,0,1.6l-2.4,0.6
		c-3.6-2.5-7-4.7-10.2-6.6c-3.2-2-5-3.1-5.5-3.4l0,0c0,1.6,0,3.6,0.1,6c0,2.3,0.1,3.7,0.1,4.1H2.5c0-0.2,0-0.7,0.1-1.6
		c0-0.9,0-2.2,0-3.8c0-0.7,0-1.5,0-2.6c0-1.1,0-2.2-0.1-3.5l2.7-0.7c0.2,0.1,2.1,1.3,5.5,3.5c3.5,2.2,6.8,4.3,9.8,6.1l0,0
		c0-0.9,0-2.5-0.1-4.7c0-2.2-0.1-3.8-0.1-4.9H23.3z"/>
	<path class="st0" d="M23.3,26.5c0,0.9,0,2-0.1,3.2c0,1.2,0,2.1,0,2.6c0,1.7,0,3.1,0,4.1c0,1,0,1.5,0,1.6l-2.4,0.6
		c-3.6-2.5-7-4.7-10.2-6.6c-3.2-2-5-3.1-5.5-3.4l0,0c0,1.6,0,3.6,0.1,6c0,2.3,0.1,3.7,0.1,4.1H2.5c0-0.2,0-0.7,0.1-1.6
		c0-0.9,0-2.2,0-3.8c0-0.7,0-1.5,0-2.6c0-1.1,0-2.2-0.1-3.5l2.7-0.7c0.2,0.1,2.1,1.3,5.5,3.5c3.5,2.2,6.8,4.3,9.8,6.1l0,0
		c0-0.9,0-2.5-0.1-4.7c0-2.2-0.1-3.8-0.1-4.9H23.3z"/>
	<path class="st1" d="M23.3,26.5c0,0.9,0,2-0.1,3.2c0,1.2,0,2.1,0,2.6c0,1.7,0,3.1,0,4.1c0,1,0,1.5,0,1.6l-2.4,0.6
		c-3.6-2.5-7-4.7-10.2-6.6c-3.2-2-5-3.1-5.5-3.4l0,0c0,1.6,0,3.6,0.1,6c0,2.3,0.1,3.7,0.1,4.1H2.5c0-0.2,0-0.7,0.1-1.6
		c0-0.9,0-2.2,0-3.8c0-0.7,0-1.5,0-2.6c0-1.1,0-2.2-0.1-3.5l2.7-0.7c0.2,0.1,2.1,1.3,5.5,3.5c3.5,2.2,6.8,4.3,9.8,6.1l0,0
		c0-0.9,0-2.5-0.1-4.7c0-2.2-0.1-3.8-0.1-4.9H23.3z"/>
	<path class="st0" d="M115.4,14c1-0.4,2-0.8,2.9-1.2c4.6-1.9,10.2-3.6,15.5-5.2c8.1-2.4,17.8-4,24.5-4.7c1-0.1,5.3-0.6,6.7-0.7
		c4.7-0.2,5.6-0.2,9.1-0.3c3.5-0.1,4.8,0.1,5.3,0.1c0.6,0,4.1,0.2,5.8,0.3c5.2,0.4,11.1,1.6,15.1,2.9c8.6,2.8,17.6,8,17.6,17.2
		c0,0.6-0.4,3.2-0.9,4.7c-2.4,6.5-8.2,12.3-14.8,16.9c-9.5,6.7-21.1,11.4-30.7,14.7c-7.7,2.6-19.3,5.5-28.5,6.5
		c-2.3,0.2-4,0.6-6.8,0.7c-1.6,0.3-2.5,0.1-4.4,0.4c-0.2,0-3.8,0.3-6.3,0.3c-3.7,0.1-5.9,0-9.6-0.3c-2.6-0.2-4.1-0.3-6.7-0.7
		c-5.8-0.9-9.6-1.8-14.6-3.7c-2.6-1-4.2-1.9-6.3-3.2c-2.5-1.7-4.1-3.4-5.6-5.4c-1.4-1.9-2.2-5.2-2.2-7.2c0-0.6,0.3-3.2,0.8-4.8
		c2-6.4,7.5-11.9,13.8-16.4l14.7,14.5v1L95.1,29.8c-0.7,0.5-1.3,0.8-1.9,1.3c-6.9,5.8-10,12.3-8.8,17.5C87.6,62.5,117,68.3,150,61.3
		c33-7,57.4-24,54.4-38c-3-14-32.1-22.3-65.1-15.3c-7.6,1.6-14.8,3.8-21.3,6.3l-8.1,3.4l-1.9-0.3L115.4,14z"/>
	<path class="st0" d="M106,18.3c0-1.1,0.9-2,2-2c1.1,0,2,0.9,2,2c0,1.1-0.9,2-2,2C107,20.3,106,19.4,106,18.3"/>
	<path class="st0" d="M106,18.3c0-1.1,0.9-2,2-2c1.1,0,2,0.9,2,2c0,1.1-0.9,2-2,2C107,20.3,106,19.4,106,18.3"/>
	<path class="st3" d="M106,18.3c0-1.1,0.9-2,2-2c1.1,0,2,0.9,2,2c0,1.1-0.9,2-2,2C107,20.3,106,19.4,106,18.3z"/>
	<path class="st0" d="M107.6,39.9c0-1,0.8-1.8,1.8-1.8c1,0,1.8,0.8,1.8,1.8c0,1-0.8,1.8-1.8,1.8C108.4,41.7,107.6,40.9,107.6,39.9"
		/>
	<path class="st0" d="M107.6,39.9c0-1,0.8-1.8,1.8-1.8c1,0,1.8,0.8,1.8,1.8c0,1-0.8,1.8-1.8,1.8C108.4,41.7,107.6,40.9,107.6,39.9"
		/>
	<path class="st3" d="M107.6,39.9c0-1,0.8-1.8,1.8-1.8c1,0,1.8,0.8,1.8,1.8c0,1-0.8,1.8-1.8,1.8C108.4,41.7,107.6,40.9,107.6,39.9z"
		/>
</g>
</svg>
